<?xml version="1.0" encoding="UTF-8"?>
<svg id="Layer_1" data-name="Layer 1" xmlns="http://www.w3.org/2000/svg" viewBox="0 0 16 16">
  <defs>
    <style>
      .cls-1 {
        fill: #fff;
      }

      .cls-2 {
        fill: #5d9cdb;
      }
    </style>
  </defs>
  <rect class="cls-2" width="16" height="16"/>
  <g>
    <path class="cls-1" d="M4.13,12.33l-1.1-3.46h-.72v3.46H.87V3.67h2.24c1.31,0,2.18.52,2.18,1.83v1.55c0,.83-.35,1.35-.94,1.61l1.24,3.68h-1.46ZM2.31,7.64h.76c.47,0,.79-.17.79-.79v-1.13c0-.62-.32-.79-.79-.79h-.76v2.71Z"/>
    <path class="cls-1" d="M8.51,6.76v-1.21c0-.55-.31-.74-.73-.74s-.73.2-.73.74v.59c0,.45.15.64.56.88l1.02.57c.83.47,1.32.85,1.32,1.78v1.25c0,1.34-.83,1.81-2.14,1.81h-.02c-1.31,0-2.14-.46-2.14-1.81v-1.51h1.41v1.31c0,.53.31.77.74.77s.74-.23.74-.77v-.68c0-.45-.14-.67-.57-.9l-1-.57c-.84-.48-1.32-.88-1.32-1.78v-1.14c0-1.29.94-1.78,2.13-1.78h.02c1.19,0,2.13.5,2.13,1.78v1.41h-1.41Z"/>
    <path class="cls-1" d="M13.67,12.33l-1.19-3.76-.64,1.26v2.5h-1.44V3.67h1.44v3.9l1.64-3.9h1.51l-1.66,3.26,1.81,5.41h-1.46Z"/>
  </g>
</svg>